<?xml version="1.0" encoding="UTF-8" standalone="no"?>
<!DOCTYPE svg PUBLIC "-//W3C//DTD SVG 1.1//EN" "http://www.w3.org/Graphics/SVG/1.1/DTD/svg11.dtd">
<svg width="100%" height="100%" viewBox="0 0 600 600" version="1.1" xmlns="http://www.w3.org/2000/svg" xmlns:xlink="http://www.w3.org/1999/xlink" xml:space="preserve" xmlns:serif="http://www.serif.com/" style="fill-rule:evenodd;clip-rule:evenodd;stroke-linejoin:round;stroke-miterlimit:2;">
    <rect x="0" y="0" width="600" height="600" style="fill:white;"/>
    <path d="M524.354,636.923C524.497,629.413 530.631,623.369 538.176,623.369C479.575,623.369 437.683,608.804 407.475,583.888C377.067,558.808 358.042,522.759 347.189,477.418C327.827,396.528 334.828,283.805 336.942,156.415C336.993,153.309 337.33,149.2 335.996,145.01C334.681,140.88 332.163,137.904 328.182,135.864C326.725,135.118 324.331,134.729 321.484,133.717C319.26,132.927 316.867,132.21 314.292,131.575C310.166,130.557 305.802,131.494 302.456,134.114C299.111,136.735 297.156,140.748 297.156,144.998L297.156,1118.82C297.156,1118.82 249.058,1118.82 249.058,1118.82C249.058,999.066 249.058,141.746 249.058,141.746C249.058,134.111 242.868,127.921 235.233,127.921L222.442,127.921C214.807,127.921 208.618,134.111 208.618,141.746L208.618,600C208.618,613.273 197.842,624.049 184.568,624.049C171.295,624.049 160.519,613.273 160.519,600C160.519,600 160.519,79.822 160.519,79.822L276.035,79.822C329.107,79.822 354.858,93.443 368.023,107.189C384.218,124.097 385.254,143.928 385.034,157.213C382.999,279.832 375.329,388.361 393.966,466.221C402.113,500.258 415.253,527.955 438.079,546.782C461.105,565.774 493.508,575.27 538.176,575.27C538.176,575.27 655.415,575.27 655.415,575.27C668.688,575.27 679.465,586.046 679.465,599.319C679.465,612.593 668.688,623.369 655.415,623.369L538.176,623.369L538.176,637.194C533.468,637.194 528.861,637.103 524.354,636.923Z"/>
</svg>
